<svg width="16" height="16" viewBox="0 0 16 16" fill="none" xmlns="http://www.w3.org/2000/svg">
<g clip-path="url(#clip0_1_187)">
<g clip-path="url(#clip1_1_187)">
<path d="M15.5469 8.18125C15.5469 12.6031 12.5188 15.75 8.04688 15.75C3.75938 15.75 0.296875 12.2875 0.296875 8C0.296875 3.7125 3.75938 0.25 8.04688 0.25C10.1344 0.25 11.8906 1.01562 13.2437 2.27813L11.1344 4.30625C8.375 1.64375 3.24375 3.64375 3.24375 8C3.24375 10.7031 5.40312 12.8938 8.04688 12.8938C11.1156 12.8938 12.2656 10.6938 12.4469 9.55313H8.04688V6.8875H15.425C15.4969 7.28437 15.5469 7.66562 15.5469 8.18125Z" fill="#4B5563"/>
</g>
</g>
<defs>
<clipPath id="clip0_1_187">
<rect width="15.25" height="16" fill="white" transform="translate(0.296875)"/>
</clipPath>
<clipPath id="clip1_1_187">
<path d="M0.296875 0H15.5469V16H0.296875V0Z" fill="white"/>
</clipPath>
</defs>
</svg>
