<svg width="46" height="36" viewBox="0 0 46 36" fill="none" xmlns="http://www.w3.org/2000/svg">
<g clip-path="url(#clip0_1_17)">
<path d="M28.1187 0.0843813C26.9234 -0.26015 25.6789 0.435944 25.3344 1.63126L16.3344 33.1313C15.9898 34.3266 16.6859 35.5711 17.8812 35.9156C19.0766 36.2602 20.3211 35.5641 20.6656 34.3688L29.6656 2.86876C30.0102 1.67344 29.3141 0.428913 28.1187 0.0843813ZM33.7859 8.52891C32.907 9.40782 32.907 10.8352 33.7859 11.7141L40.0648 18L33.7789 24.2859C32.9 25.1649 32.9 26.5922 33.7789 27.4711C34.6578 28.35 36.0852 28.35 36.9641 27.4711L44.8391 19.5961C45.718 18.7172 45.718 17.2899 44.8391 16.4109L36.9641 8.53594C36.0852 7.65704 34.6578 7.65704 33.7789 8.53594L33.7859 8.52891ZM12.2211 8.52891C11.3422 7.65001 9.91484 7.65001 9.03593 8.52891L1.16093 16.4039C0.282028 17.2828 0.282028 18.7102 1.16093 19.5891L9.03593 27.4641C9.91484 28.343 11.3422 28.343 12.2211 27.4641C13.1 26.5852 13.1 25.1578 12.2211 24.2789L5.93515 18L12.2211 11.7141C13.1 10.8352 13.1 9.40782 12.2211 8.52891Z" fill="#4F46E5"/>
</g>
<defs>
<clipPath id="clip0_1_17">
<path d="M0.5 0H45.5V36H0.5V0Z" fill="white"/>
</clipPath>
</defs>
</svg>
