<svg width="17" height="16" viewBox="0 0 17 16" fill="none" xmlns="http://www.w3.org/2000/svg">
<path d="M6.1375 12.4187C6.1375 12.4812 6.06562 12.5312 5.975 12.5312C5.87187 12.5406 5.8 12.4906 5.8 12.4187C5.8 12.3562 5.87188 12.3062 5.9625 12.3062C6.05625 12.2969 6.1375 12.3469 6.1375 12.4187ZM5.16563 12.2781C5.14375 12.3406 5.20625 12.4125 5.3 12.4312C5.38125 12.4625 5.475 12.4312 5.49375 12.3687C5.5125 12.3062 5.45312 12.2344 5.35938 12.2063C5.27812 12.1844 5.1875 12.2156 5.16563 12.2781ZM6.54688 12.225C6.45625 12.2469 6.39375 12.3063 6.40312 12.3781C6.4125 12.4406 6.49375 12.4813 6.5875 12.4594C6.67812 12.4375 6.74062 12.3781 6.73125 12.3156C6.72187 12.2563 6.6375 12.2156 6.54688 12.225ZM8.60313 0.25C4.26875 0.25 0.953125 3.54063 0.953125 7.875C0.953125 11.3406 3.13438 14.3063 6.25 15.35C6.65 15.4219 6.79063 15.175 6.79063 14.9719C6.79063 14.7781 6.78125 13.7094 6.78125 13.0531C6.78125 13.0531 4.59375 13.5219 4.13438 12.1219C4.13438 12.1219 3.77813 11.2125 3.26562 10.9781C3.26562 10.9781 2.55 10.4875 3.31562 10.4969C3.31562 10.4969 4.09375 10.5594 4.52187 11.3031C5.20625 12.5094 6.35313 12.1625 6.8 11.9563C6.87188 11.4563 7.075 11.1094 7.3 10.9031C5.55313 10.7094 3.79063 10.4562 3.79063 7.45C3.79063 6.59062 4.02813 6.15938 4.52813 5.60938C4.44688 5.40625 4.18125 4.56875 4.60938 3.4875C5.2625 3.28437 6.76562 4.33125 6.76562 4.33125C7.39062 4.15625 8.0625 4.06563 8.72813 4.06563C9.39375 4.06563 10.0656 4.15625 10.6906 4.33125C10.6906 4.33125 12.1938 3.28125 12.8469 3.4875C13.275 4.57188 13.0094 5.40625 12.9281 5.60938C13.4281 6.1625 13.7344 6.59375 13.7344 7.45C13.7344 10.4656 11.8938 10.7063 10.1469 10.9031C10.4344 11.15 10.6781 11.6187 10.6781 12.3531C10.6781 13.4062 10.6687 14.7094 10.6687 14.9656C10.6687 15.1687 10.8125 15.4156 11.2094 15.3438C14.3344 14.3062 16.4531 11.3406 16.4531 7.875C16.4531 3.54063 12.9375 0.25 8.60313 0.25ZM3.99062 11.0281C3.95 11.0594 3.95938 11.1313 4.0125 11.1906C4.0625 11.2406 4.13437 11.2625 4.175 11.2219C4.21563 11.1906 4.20625 11.1187 4.15313 11.0594C4.10313 11.0094 4.03125 10.9875 3.99062 11.0281ZM3.65313 10.775C3.63125 10.8156 3.6625 10.8656 3.725 10.8969C3.775 10.9281 3.8375 10.9187 3.85938 10.875C3.88125 10.8344 3.85 10.7844 3.7875 10.7531C3.725 10.7344 3.675 10.7437 3.65313 10.775ZM4.66563 11.8875C4.61563 11.9281 4.63437 12.0219 4.70625 12.0813C4.77813 12.1531 4.86875 12.1625 4.90937 12.1125C4.95 12.0719 4.93125 11.9781 4.86875 11.9187C4.8 11.8469 4.70625 11.8375 4.66563 11.8875ZM4.30938 11.4281C4.25938 11.4594 4.25938 11.5406 4.30938 11.6125C4.35938 11.6844 4.44375 11.7156 4.48438 11.6844C4.53437 11.6438 4.53437 11.5625 4.48438 11.4906C4.44062 11.4188 4.35938 11.3875 4.30938 11.4281Z" fill="#4B5563"/>
</svg>
