<svg width="64" height="64" viewBox="0 0 64 64" fill="none" xmlns="http://www.w3.org/2000/svg">
<g clip-path="url(#clip0_20_21)">
<mask id="mask0_20_21" style="mask-type:luminance" maskUnits="userSpaceOnUse" x="0" y="0" width="64" height="64">
<path d="M64 0H0V64H64V0Z" fill="white"/>
</mask>
<g mask="url(#mask0_20_21)">
<path d="M47.633 57.1523C40.3523 78.9505 20.9321 85.6734 10.6642 58.6055C9.24771 54.8844 12.9395 53.5046 15.5229 51.8605C17.2917 50.7376 18.2239 49.7688 18.1138 48.7633C17.6 44.0367 15.4055 30.8697 15.4055 30.8697L15.1853 30.444C15.1853 30.444 15.2367 30.3266 15.0239 30.5321C14.8037 30.7523 14.2972 33.0422 12.3083 33.0422C10.5101 33.0422 8.69725 32.2422 7.83119 26.7083C7.50092 24.7046 7.67707 19.4495 9.90826 18.4954C10.8257 18.1064 11.6697 17.967 12.4917 18.4367C13.3211 18.9064 11.5376 16.822 20.7119 9.18899C26.6716 4.21284 36.0881 3.48624 39.8899 4.33027C43.6917 5.17431 47.4862 7.03119 49.167 10.9725C51.2073 15.7431 47.2661 19.3615 48.1395 30.2385C47.978 34.1725 48.1982 42.8037 37.3798 45.6954C35.3248 46.2459 35.9633 49.2477 39.0459 49.9817C43.9633 51.5229 47.633 55.2881 47.633 57.167" fill="white"/>
<path fill-rule="evenodd" clip-rule="evenodd" d="M47.633 23.2807L47.6404 23.178C47.9413 20.5064 48.2422 17.9156 49.6294 15.589C50.1064 15.9119 50.0477 16.3229 49.9009 16.7046C48.4404 20.4624 48.5798 24.367 48.7119 28.2716L48.7413 29.2991C48.8954 34.1725 47.6771 38.6055 44.433 42.3266C43.3028 43.6183 41.8055 44.5138 40.2862 45.2844C38.7156 46.0917 38.3853 46.7596 38.8771 48.4844L38.9358 48.6752C39.0385 48.9615 39.1413 49.255 38.8624 49.5413C38.5321 49.8789 38.1651 49.7835 37.7761 49.6734L37.7321 49.6661C34.0931 48.6471 30.6809 46.946 27.6771 44.6532C27.2367 44.3303 26.8844 43.8972 26.5394 43.4716L26.5174 43.4422C26.3339 43.222 26.2972 42.8697 26.5541 42.6789C26.7963 42.4954 26.9798 42.6422 27.1927 42.811L27.2661 42.8771C28.8687 44.1774 30.8138 44.9856 32.8661 45.2037C33.8495 45.3064 34.8183 45.2697 35.8018 45.233C36.345 45.211 36.8881 45.189 37.4385 45.1963C38.1872 45.1963 38.811 44.8514 39.3982 44.5211L39.6037 44.4037C41.644 43.2661 43.589 41.9963 44.9028 39.9486C46.0844 38.1138 46.8037 36.1174 47.222 34.011C47.7505 31.3615 47.7064 28.6752 47.6624 25.9523C47.6404 25.0716 47.6257 24.1761 47.6257 23.2807H47.633ZM10.6862 17.7468C12.2936 17.622 13.1817 18.5688 13.9376 19.6771C14.8336 21.0311 15.3969 22.5777 15.5817 24.1908C15.6183 24.4624 15.655 24.7486 15.4936 25.0202C15.1633 25.0642 15.1339 24.8 15.1266 24.6092C15.0899 23.0899 14.4147 21.7688 13.7394 20.4917C13.255 19.5743 12.5505 18.6862 11.4349 18.4661C10.1725 18.2092 9.01284 19.3468 8.44037 20.8294C7.37615 23.589 7.55963 26.3046 8.54312 28.9761C8.96881 30.1431 9.50459 31.3321 10.5835 32.1468C11.6697 32.9761 12.9835 32.8294 13.7835 31.7284L13.9303 31.545C14.0771 31.3541 14.2239 31.1706 14.2972 30.9578C14.4514 30.5321 14.6936 30.1358 15.1266 30.1945C15.6257 30.2679 15.7138 30.8037 15.7651 31.222C16.2204 35.0668 16.7588 38.9014 17.3798 42.7229L17.8128 45.5706C18.0037 46.8257 18.2239 48.6312 18.0771 49.3945C18.0676 49.448 18.0602 49.5019 18.055 49.556C18.0257 49.7615 18.011 49.9229 17.7468 49.9596C17.3872 50.0183 17.233 49.8128 17.1817 49.4899C17.0128 48.2422 16.9615 47.7578 16.8881 45.8495C16.822 44 16.4771 42.1798 16.1248 40.3523L15.7578 38.3706C15.3761 36.1101 15.0018 33.8202 14.9651 31.2514L14.8183 31.4716C14.2605 32.3009 13.8128 32.9761 13.0202 33.233C12.4318 33.4585 11.787 33.4911 11.1788 33.3262C10.5706 33.1613 10.0306 32.8074 9.6367 32.3156C8.60248 31.1475 7.87596 29.7399 7.52293 28.2202C6.90642 25.7248 6.79633 23.2954 7.58899 20.8367C7.97064 19.655 9.32844 17.556 10.6862 17.7541V17.7468ZM13.2257 27.1046C13.5486 27.3394 13.8422 27.545 14.1064 26.7083C14.0257 23.611 13.0275 21.6294 11.4789 21.5486C12.3009 22.6202 13.0936 23.6624 13.167 25.1083C12.8616 24.9523 12.5936 24.7319 12.3817 24.4624C12.2349 24.3009 12.0881 24.1394 11.9046 24.022L11.6844 23.8459C11.3321 23.5816 10.9725 23.3028 10.378 23.5156C10.6569 23.9413 11.0385 24.2495 11.4275 24.5431C11.8679 24.8881 12.3083 25.2257 12.5725 25.7541C11.7945 26.3193 11.4569 27.0532 11.8605 27.9486C12.2128 28.7193 12.7339 29.3578 13.7615 29.4018C13.7174 28.9394 13.4165 28.6018 13.1156 28.2716C12.7486 27.8752 12.4037 27.4936 12.5651 26.9064C12.8 26.7963 13.0202 26.9578 13.2257 27.1046Z" fill="black"/>
<path d="M77.4606 96.8073L-18.2239 96.5505C-18.2239 96.5505 -14.7963 74.2312 -5.64404 63.8899C-1.54128 59.2587 1.87156 54.6862 11.0385 51.3982C12.6092 50.833 14.9358 44.9394 16.1835 44.3229C17.3651 43.7358 16.5872 48.1541 17.6807 49.0495C19.9107 50.9103 22.2647 52.617 24.7266 54.1578C29.0495 56.8881 31.0385 62.5908 31.0385 62.5908C31.0385 62.5908 32.9761 57.0936 34.5908 54.3927C35.7284 52.4844 39.5303 46.8771 39.5303 46.8771C39.5303 46.8771 46.4807 49.0495 49.0569 50.9651C50.6202 52.1248 49.7028 51.8679 56.7927 55.9193C62.9505 59.4349 68.9908 69.0642 72.2055 77.0569C75.6257 85.556 77.4606 96.8 77.4606 96.8V96.8073Z" fill="white"/>
<path fill-rule="evenodd" clip-rule="evenodd" d="M76.9908 96.8073C76.4991 94.8257 76.0734 92.844 75.6477 90.855C75.4642 89.9743 75.2807 89.0936 75.0826 88.2275C74.4807 85.5119 73.6881 82.8697 72.8147 80.2422C71.9731 77.6861 70.9428 75.196 69.7321 72.7926C68.5295 70.3385 67.1561 67.9719 65.622 65.7101C63.4202 62.5321 61.0275 59.5082 57.8569 57.2404C55.5523 55.5963 52.9982 54.3633 50.4514 53.1376C49.5486 52.6972 48.6239 52.9027 47.7211 53.1009L47.4275 53.1743C46.7009 53.3211 45.989 53.4826 45.2697 53.644C44.4079 53.8404 43.5442 54.0288 42.6789 54.2092C42.3046 54.2826 42.1651 54.5027 42.055 54.811L41.6147 56.0954C41.3138 56.9908 41.0055 57.8862 40.7266 58.789C40.5358 59.3908 40.2128 59.655 39.5743 59.6404C39.0312 59.633 38.4881 59.6404 37.945 59.655C37.3578 59.6624 36.778 59.6771 36.1982 59.6624C35.1706 59.6404 34.6642 60.0073 34.789 61.2404C34.9284 62.5615 34.9211 63.8899 34.9211 65.2257C34.9211 66.011 34.9211 66.7963 34.9431 67.589C35.0165 69.6073 35.0165 71.6477 34.9798 73.6587C34.9064 77.4238 34.9064 81.189 34.9064 84.9615C34.9138 88.866 34.9211 92.778 34.833 96.7193C34.5509 96.8018 34.2517 96.8069 33.967 96.7339C33.8716 92.7633 33.8275 88.8587 33.8495 84.9541C33.8642 82.6202 33.8495 80.2789 33.8422 77.9376C33.8128 73.2477 33.7908 68.5578 33.9743 63.8679C33.989 63.611 33.9009 63.3761 33.6147 63.3688C33.4474 63.5561 33.2785 63.742 33.1083 63.9266C32.1688 64.9541 31.244 65.967 30.8037 67.4422C30.1945 66.7376 29.945 65.9156 29.6954 65.1303C29.4238 64.2569 29.1596 63.4202 28.4477 62.789C28.3009 63.2147 28.3009 63.6037 28.3009 64V66.422L28.3156 71.4862L28.3083 77.6807C28.3009 82.1578 28.2936 86.6275 28.3083 91.0972C28.3156 91.6404 28.3083 92.1835 28.2862 92.7193C28.2569 94.0844 28.2202 95.4495 28.433 96.8H27.3908C27.2946 95.2729 27.248 93.743 27.2514 92.2128V62.9284C27.2514 61.167 26.6862 60.6679 25.0055 60.2128C22.2165 59.4789 19.4128 58.6789 17.2697 56.5651C16.4771 55.7871 15.6257 56.1761 14.9211 56.4917L14.833 56.5358C14.2018 56.8293 13.5486 57.0422 12.8954 57.255C12.0147 57.5486 11.1339 57.8422 10.3193 58.3046C10.1505 58.3926 9.99633 58.4954 9.83486 58.5982C9.52923 58.8043 9.20486 58.9813 8.86605 59.1266L8.70459 59.2C8.4844 59.3027 8.27156 59.3982 8.02202 59.1633C7.74312 58.9138 7.75046 58.6495 7.87523 58.3193L8.29358 57.0642C8.66055 55.9486 9.02752 54.8404 9.51193 53.7615L9.58532 53.6147C9.68807 53.4459 9.78348 53.2771 9.68807 53.0495C9.39449 52.8514 9.12293 52.9982 8.88073 53.1303L8.74862 53.2037L8.58715 53.2771L8.44037 53.3504C5.32844 54.9138 2.21651 56.4771 -0.352295 58.9284C-2.18396 60.6469 -3.87729 62.5071 -5.41651 64.4917C-8.37386 68.4203 -10.786 72.7309 -12.5872 77.3064C-14.3193 81.622 -15.8165 86.0404 -16.5725 90.6642C-16.7193 91.5156 -16.8514 92.367 -16.9908 93.2257L-17.5706 96.7266C-17.9743 96.8 -18.3633 96.8 -18.8257 96.8C-18.4881 94.378 -18.0991 91.956 -17.6367 89.5413C-17.4679 88.6679 -17.2477 87.8092 -17.0202 86.9504C-16.8881 86.422 -16.7486 85.9009 -16.6312 85.3725C-16.215 83.7197 -15.7177 82.0884 -15.1413 80.4844L-15.0679 80.2862C-13.5426 75.6774 -11.4729 71.2671 -8.90275 67.1486C-7.66272 65.1737 -6.26358 63.3033 -4.71927 61.556C-1.93028 58.378 1.15229 55.5376 5.02018 53.7541C7.11926 52.7853 9.07156 51.6257 11.0092 50.3927C11.5596 50.0404 11.8165 49.5339 12.0807 49.0275C12.1835 48.844 12.2789 48.6532 12.3963 48.4697C13.4752 46.7449 14.5982 45.0642 16.2936 43.8605L16.411 43.7725C16.6239 43.6037 16.8294 43.4495 17.1229 43.6257C17.3872 43.7725 17.3725 44 17.3651 44.2422V44.4477C17.4092 45.666 17.5119 46.8771 17.6147 48.0881C17.6514 48.4771 17.8128 48.822 18.2018 48.9982C19.8459 49.7541 21.2477 50.855 22.6495 51.9633C23.4936 52.6238 24.3376 53.2844 25.233 53.8715C27.3921 55.2424 29.1815 57.1226 30.444 59.3468C30.5908 59.611 30.7009 59.8899 30.8257 60.2128L31.0165 60.6972C31.6991 57.9449 33.167 55.6917 34.6349 53.4532L35.4936 52.1321C35.6404 51.8972 35.7578 51.6477 35.8752 51.3982C36.0367 51.0605 36.1982 50.7229 36.4477 50.4147C36.6282 50.1948 36.741 49.9272 36.7723 49.6445C36.8035 49.3617 36.752 49.076 36.6239 48.822C36.4624 48.4771 36.3743 48.1174 36.5138 47.7431C37.1376 47.5523 37.4679 47.9119 37.8202 48.2862L37.8936 48.3596C38.5541 47.9339 38.4807 47.3835 38.1358 46.7963C38.0183 46.5908 37.9156 46.3927 38.0917 46.1945C38.2605 46.011 38.4881 46.033 38.7083 46.0991C41.4312 46.8844 44.1394 47.7138 46.6495 49.0789C46.9945 49.2697 47.3541 49.4459 47.7138 49.6147C48.6899 50.0844 49.6661 50.5541 50.378 51.3394C51.5083 52.5871 52.9541 53.2624 54.4 53.9376C55.2661 54.3486 56.1248 54.7449 56.9248 55.2734C58.7193 56.3932 60.3791 57.7157 61.8716 59.2147C63.5596 60.9982 65.1376 62.8844 66.5101 64.9101C67.7138 66.6715 68.8587 68.4771 69.8569 70.378C71.2164 72.9668 72.3936 75.6473 73.3798 78.4C74.2972 80.9468 75.0826 83.5303 75.7798 86.1431C76.2789 88.0367 76.6018 89.9596 76.9174 91.8899C77.189 93.5046 77.4532 95.1193 77.8275 96.7339C77.5927 96.8073 77.3358 96.8073 76.9908 96.8073ZM29.1156 59.0238C27.4209 56.9933 25.4348 55.2248 23.222 53.7761C22.5595 53.3387 21.9246 52.8608 21.3211 52.3449C20.4404 51.6257 19.5596 50.8991 18.5174 50.422C17.2844 49.8642 16.6239 49.0715 16.5798 47.7431V47.567C16.5725 47.2807 16.5651 46.9945 16.5284 46.7156C16.4697 46.1578 15.8165 45.8642 15.4716 46.2826C15.3541 46.4293 15.2147 46.5468 15.0826 46.6715C14.8892 46.8308 14.7188 47.016 14.5761 47.222C12.8881 49.9082 11.2147 52.5945 9.99633 55.5376C9.83486 55.9339 9.72477 56.455 10.0624 56.778C10.3339 57.0422 10.6789 56.9027 11.0165 56.7633C11.0748 56.7379 11.1336 56.7134 11.1927 56.6899L12.6239 56.1468C13.5853 55.7651 14.5541 55.3908 15.545 55.0899C16.5945 54.7743 17.3945 54.9578 18.1358 55.7871C18.9207 56.6226 19.8806 57.2742 20.9468 57.6954C22.1138 58.2092 23.3101 58.5982 24.5064 58.9945C25.5486 59.3394 26.5908 59.6844 27.611 60.1027C28.8661 60.6165 30.033 61.2844 30.0183 62.9284C30.0183 63.1853 30.0771 63.4422 30.5027 63.4055C30.7156 62.8183 30.7156 62.2312 30.422 61.644L30.0404 60.866C29.7468 60.2789 29.4532 59.6771 29.1156 59.0238ZM42.422 48.389L43.0826 48.6238L46.3486 50.1284C46.9408 50.3972 47.5329 50.6663 48.1248 50.9358C48.3596 51.0459 48.6165 51.156 48.6165 51.4569C48.6165 51.7798 48.3596 51.8238 48.1248 51.8679L47.9927 51.8972C47.6373 51.9826 47.2825 52.0707 46.9284 52.1615C46.0183 52.389 45.1083 52.6165 44.1761 52.756C42.2239 53.0495 41.167 53.8349 40.6312 55.7138C40.5651 55.9486 40.4844 56.1835 40.3963 56.411C40.2789 56.7413 40.1688 57.0715 40.1028 57.3945C39.9193 58.2752 39.3541 58.3633 38.6716 58.422L37.3725 58.5688C36.6605 58.6422 35.9486 58.7303 35.2294 58.7743C34.6422 58.811 34.3046 59.1119 34.0844 59.5816C33.9156 59.9339 33.7248 60.2715 33.5413 60.6092C33.189 61.2477 32.8294 61.8862 32.6165 62.5908C32.5138 62.9138 32.367 63.3982 31.7578 63.3835C31.9046 61.622 32.345 59.9119 33.0422 58.2972C33.5193 57.1963 34.1872 56.2202 34.855 55.2514C35.4128 54.4293 35.9706 53.6073 36.4183 52.7266C37.2404 51.0752 38.444 49.7615 39.6624 48.4477L40.044 48.0293C40.3009 47.7431 40.4771 47.6624 40.822 47.7945C41.3578 48.0147 41.8936 48.2055 42.4367 48.3963L42.422 48.389Z" fill="black"/>
<path fill-rule="evenodd" clip-rule="evenodd" d="M48 69.0936C47.5743 66.4954 47.633 64.0294 48.8294 61.5266C50.9651 63.934 50.9138 66.7376 50.8697 69.4752L50.855 70.6275C51.222 70.767 51.4202 70.6349 51.5963 70.5174L51.7725 70.4147C52.6899 70.011 52.9688 70.1798 53.1229 71.2C53.4018 73.0495 53.4165 74.9211 53.4312 76.7853L53.4385 77.5927C53.4385 78.0991 53.167 78.4661 52.8147 78.7009C51.8716 79.4005 51.0186 80.214 50.2752 81.1229C49.7908 81.6587 49.3064 82.2018 48.778 82.6936C48.0514 83.3541 46.8183 83.5743 46.0183 82.9651L45.2477 82.3853C44.0881 81.5193 42.9358 80.6606 41.8349 79.7138C41.3032 79.3036 40.897 78.7528 40.6622 78.1237C40.4274 77.4946 40.3735 76.8123 40.5064 76.1541C40.6312 75.3908 40.6972 74.6128 40.7633 73.8275C40.822 73.211 40.8734 72.5945 40.9541 71.978C41.1596 70.4587 41.4459 70.2826 42.8257 70.8844C42.9505 70.9358 43.0752 70.9725 43.2 71.0018C43.5303 71.0899 43.8752 71.1853 44.1761 71.589L44.3229 70.4881C44.4404 69.6073 44.5505 68.7927 44.5431 67.9633V67.9193C44.5431 67.8018 44.5431 67.6551 44.4844 67.611C43.1633 66.7156 43.4055 65.5413 43.9927 64.4037L44.0661 64.2569C44.4988 63.5421 44.7949 62.7532 44.9394 61.9303C44.9394 61.8422 45.0202 61.7615 45.0862 61.6807L45.1743 61.578L45.2844 61.6L45.3945 61.6294C45.5046 62.3927 45.9083 63.0018 46.3046 63.6184C46.6422 64.1395 46.9798 64.6606 47.1486 65.2697C47.3395 65.9963 47.222 66.6055 46.7009 67.0679C46.1872 67.5303 46.1138 68.0661 46.1872 68.6826L46.2385 69.1229C46.2826 69.4679 46.3266 69.8202 46.3413 70.1725C46.4073 71.4716 46.6055 71.633 48.022 71.3762C48.1615 70.6422 48.1174 69.9083 48 69.0936ZM50.1505 79.5156C50.2239 79.4422 50.3119 79.3762 50.3927 79.3101C50.5666 79.1541 50.7505 79.0094 50.9431 78.8771C51.9706 78.2165 52.4697 77.3651 52.2936 76.0661C52.1982 75.3541 52.2202 74.6349 52.2202 73.9083C52.2349 73.534 52.2349 73.1596 52.2275 72.7853V72.6092C52.2275 72.2716 52.2275 71.9266 51.9339 71.6551C51.5963 71.7284 51.2807 71.8752 50.9725 72.022C50.5321 72.2202 50.0917 72.4184 49.6147 72.4184C49.0716 72.4184 48.5284 72.433 47.9853 72.4551C46.2532 72.5138 44.5211 72.5798 42.855 71.8826C42.2826 71.6404 42.055 71.8239 42.0257 72.4257C41.9523 73.8936 41.7688 75.3468 41.5046 76.7853L41.4972 76.8147C41.4092 77.2771 41.3138 77.8202 41.7615 78.1945C43.3491 79.4954 44.9442 80.7872 46.5468 82.0697C47.1193 82.5395 47.7064 82.4367 48.0954 81.8789C48.407 81.4636 48.7479 81.0711 49.1156 80.7046C49.4606 80.3376 49.8202 79.956 50.1431 79.5156H50.1505ZM48.6605 65.7395C48.7486 65.7835 48.844 65.8349 48.9394 65.7982L49.8202 65.6881C49.233 66.2899 48.8734 66.2973 48.2716 65.7468C48.411 65.6073 48.5358 65.6734 48.6605 65.7395Z" fill="black"/>
<path d="M49.2844 3.65505C50.3853 6.57615 51.3982 8.77799 51.2073 11.8532C51.1339 12.9835 50.3119 14.767 50.033 15.8532C49.644 17.3505 48.8294 18.7229 48.7339 20.3083C48.7193 20.5064 48.5725 20.6385 48.2349 20.7046C47.6624 19.956 47.589 19.0018 47.5596 18.1211C47.4716 15.3688 47.3394 12.6312 46.7229 9.94496C46.5468 9.189 46.2606 8.46973 45.9596 7.54496C45.6881 10.0404 45.6881 10.0257 43.4202 10.0624C39.3394 10.1358 35.2734 10.378 31.2367 10.9651C30.0844 11.134 29.989 11.0606 29.1963 9.58533C28.389 10.1284 28.411 11.0973 28.0073 11.8312C26.7816 14.0991 25.2037 16.022 22.8697 17.2551C22.0624 17.6807 20.4183 17.622 18.5541 17.1303C17.8569 19.3541 16.1688 21.2844 16.7633 23.8973C16.8654 24.3255 16.8723 24.7709 16.7835 25.202C16.6948 25.6332 16.5125 26.0396 16.2495 26.3927C15.9706 26.789 15.6624 26.8551 15.2807 26.7376C14.8917 26.6202 15.0752 26.3046 15.0826 26.033C15.1193 23.6404 14.5394 21.3725 13.1817 19.4055C11.9339 17.5853 8.99083 18.0404 8.05138 20.0954C7.88257 20.4771 7.80184 20.9321 7.20734 21.2991C7.09725 19.956 7.07523 18.7303 7.21468 17.5193C7.49564 14.699 8.11161 11.9223 9.04954 9.24771C10.4293 5.35832 12.8483 1.92134 16.044 -0.689899C19.4447 -3.43171 23.5828 -5.10228 27.9339 -5.4899C28.8147 -5.58531 29.6881 -5.75412 30.5688 -5.84219C33.6606 -6.14078 36.7801 -5.74458 39.6991 -4.68256C43.6477 -3.28806 47.0532 -1.14495 48.8367 2.85505C48.9468 3.11193 49.1083 3.3468 49.2844 3.65505ZM14.3633 29.5853C14.6569 29.5046 14.8624 29.5193 14.9505 29.7982C15.5817 31.5743 15.611 33.4239 15.5229 35.2661C15.4862 35.9706 14.3193 36.822 13.3431 36.9541C12.411 37.0716 11.545 36.9468 10.9945 36.0734C10.7009 35.611 10.9211 35.1193 11.0899 34.5688C10.0404 34.5982 9.13028 35.0092 8.19083 34.5688C6.94312 33.989 6.81835 33.4385 7.80917 32.5138L8.06605 32.1982C7.62569 31.6404 6.90642 31.5596 6.45138 31.0606C5.94495 30.5248 5.87156 30.0184 6.28257 29.4826C6.82569 28.7853 7.69174 28.6532 8.2789 29.1156C8.50642 29.2771 8.69725 29.4973 8.82936 29.7468C9.10552 30.2995 9.53277 30.7625 10.0615 31.0821C10.5903 31.4016 11.1988 31.5647 11.8165 31.5523C13.1523 31.589 13.8936 30.7963 14.3633 29.5853Z" fill="black"/>
<path d="M32.1468 38.2239C31.9706 39.523 33.3284 40.6092 34.5248 40.1321C34.2092 38.9725 32.9982 38.8551 32.1468 38.2239Z" fill="white"/>
<path fill-rule="evenodd" clip-rule="evenodd" d="M31.3615 39.4716C32.2716 41.189 34.0037 41.6661 35.8899 40.6679C36.6606 40.1982 36.9835 39.4496 37.2624 38.7523C37.3821 38.4678 37.4344 38.1595 37.4153 37.8514C37.3962 37.5433 37.3062 37.2437 37.1523 36.9762C36.1248 35.0826 34.8624 35.0312 33.3431 35.3175C31.6917 35.6331 30.5688 37.989 31.3615 39.4716ZM34.5248 40.1321C33.3284 40.6092 31.9706 39.523 32.1468 38.2239C32.4184 38.422 32.7193 38.5688 33.0202 38.7156C33.6734 39.0312 34.3119 39.3395 34.5248 40.1321Z" fill="black"/>
<path d="M30.9725 34.6422C31.5743 34.9138 31.5376 35.3248 31.2807 35.7431C31.0899 36.0734 30.8037 36.2716 30.422 36.0367C30.0697 35.8165 30.1505 35.5156 30.3486 35.2294C30.5101 35.0092 30.5688 34.6936 30.9725 34.6422Z" fill="black"/>
<path d="M37.4605 31.3101C37.0936 31.3248 36.822 31.2808 36.5798 31.0973C36.3743 30.9505 36.345 30.745 36.389 30.5175C36.4257 30.2752 36.6239 30.2386 36.8147 30.2532C37.8495 30.3046 38.8697 30.2165 39.8312 29.7835C40.0661 29.6734 40.2716 29.7688 40.3963 29.9743C40.5211 30.2019 40.5431 30.4367 40.3376 30.6642C39.9706 31.0899 39.5156 31.3248 38.9431 31.3101H37.4679H37.4605Z" fill="black"/>
<path d="M43.567 26.055C43.2587 25.3578 42.8404 24.9394 42.1138 24.9027C41.6734 24.8807 41.6 24.5284 41.4606 24.1835C41.6073 24.0734 41.7174 23.9119 41.8495 23.9046C43.3982 23.7798 44.9615 23.7725 46.5101 23.8972C46.9505 23.9266 47.1927 24.4844 46.745 24.6605C46.011 24.9541 45.8275 25.6294 45.3872 26.1138C44.7853 26.7743 44.2716 26.7816 43.567 26.055ZM29.5486 23.8826C30.444 23.9339 31.244 23.956 32.044 24.0294C32.3083 24.0514 32.6312 24.1615 32.6312 24.5211C32.6312 24.9321 32.2936 24.9027 32.022 24.8954C31.5596 24.8954 31.3101 25.0936 31.1046 25.5266C30.855 26.0697 30.5982 26.6495 29.7835 26.6128C29.0128 26.5761 28.6752 26.0844 28.455 25.4972C28.2936 25.0789 28.0881 24.8807 27.6477 24.8954C27.3982 24.9027 27.1266 24.8807 27.0973 24.5358C27.0679 24.1688 27.3174 24.0954 27.611 24.0073C28.2425 23.8391 28.9008 23.7967 29.5486 23.8826Z" fill="black"/>
<path d="M34.4367 19.3908C34.0257 20.6238 33.9523 20.5211 32.7486 20.2422C30.8257 19.8018 28.8807 18.833 26.855 19.9266C26.7083 20.0073 26.4881 20 26.2972 19.9853C26.033 19.9706 25.6954 20.0807 25.556 19.7431C25.4018 19.3761 25.6661 19.1339 25.945 18.9871C27.3908 18.2532 28.6972 17.2037 30.5248 17.3945C31.4642 17.4899 32.433 17.189 33.4092 17.2183C34.789 17.2697 35.0532 17.6367 34.5835 18.9725L34.4367 19.3982V19.3908ZM46.7303 17.8202C47.4349 18.3046 47.6477 19.0532 48.0734 19.655C48.1532 19.7549 48.1929 19.8809 48.1848 20.0085C48.1766 20.1361 48.1212 20.256 48.0294 20.3449C47.8532 20.5431 47.633 20.5504 47.4349 20.433C46.033 19.6257 44.5798 19.9633 43.178 20.3449C42.4294 20.5431 42.1064 20.2862 41.9156 19.6697C41.7908 19.2514 41.7027 18.8257 41.6514 18.3926C41.556 17.6734 42.1578 17.5193 42.6055 17.4972C43.9633 17.4312 45.3505 17.167 46.7303 17.8202Z" fill="black"/>
</g>
</g>
<defs>
<clipPath id="clip0_20_21">
<path d="M0 32C0 14.3269 14.3269 0 32 0V0C49.6731 0 64 14.3269 64 32V32C64 49.6731 49.6731 64 32 64V64C14.3269 64 0 49.6731 0 32V32Z" fill="white"/>
</clipPath>
</defs>
</svg>
