<svg width="13" height="13" viewBox="0 0 13 13" fill="none" xmlns="http://www.w3.org/2000/svg">
<g clip-path="url(#clip0_2_47)">
<g clip-path="url(#clip1_2_47)">
<path d="M10.8906 6.5C10.8906 7.79293 10.377 9.03291 9.46277 9.94715C8.54853 10.8614 7.30856 11.375 6.01562 11.375C4.72269 11.375 3.48272 10.8614 2.56848 9.94715C1.65424 9.03291 1.14062 7.79293 1.14062 6.5C1.14062 5.20707 1.65424 3.96709 2.56848 3.05285C3.48272 2.13861 4.72269 1.625 6.01562 1.625C7.30856 1.625 8.54853 2.13861 9.46277 3.05285C10.377 3.96709 10.8906 5.20707 10.8906 6.5ZM0.015625 6.5C0.015625 8.0913 0.647766 9.61742 1.77298 10.7426C2.8982 11.8679 4.42433 12.5 6.01562 12.5C7.60692 12.5 9.13305 11.8679 10.2583 10.7426C11.3835 9.61742 12.0156 8.0913 12.0156 6.5C12.0156 4.9087 11.3835 3.38258 10.2583 2.25736C9.13305 1.13214 7.60692 0.5 6.01562 0.5C4.42433 0.5 2.8982 1.13214 1.77298 2.25736C0.647766 3.38258 0.015625 4.9087 0.015625 6.5ZM5.45312 3.3125V6.5C5.45312 6.6875 5.54688 6.86328 5.70391 6.96875L7.95391 8.46875C8.21172 8.64219 8.56094 8.57187 8.73438 8.31172C8.90781 8.05156 8.8375 7.70469 8.57734 7.53125L6.57812 6.2V3.3125C6.57812 3.00078 6.32734 2.75 6.01562 2.75C5.70391 2.75 5.45312 3.00078 5.45312 3.3125Z" fill="#6B7280"/>
</g>
</g>
<defs>
<clipPath id="clip0_2_47">
<rect width="12" height="12" fill="white" transform="translate(0.015625 0.5)"/>
</clipPath>
<clipPath id="clip1_2_47">
<path d="M0.015625 0.5H12.0156V12.5H0.015625V0.5Z" fill="white"/>
</clipPath>
</defs>
</svg>
