<svg width="96" height="96" viewBox="0 0 96 96" fill="none" xmlns="http://www.w3.org/2000/svg">
<path d="M0 48C0 21.4903 21.4903 0 48 0C74.5097 0 96 21.4903 96 48C96 74.5097 74.5097 96 48 96C21.4903 96 0 74.5097 0 48Z" fill="#E5E7EB"/>
<path d="M0 48C0 21.4903 21.4903 0 48 0C74.5097 0 96 21.4903 96 48C96 74.5097 74.5097 96 48 96C21.4903 96 0 74.5097 0 48Z" stroke="none"/>
<path d="M27.75 30H68.25V66H27.75V30Z" stroke="#E5E7EB"/>
<g clip-path="url(#clip0_23_137)">
<path d="M54.75 63.75H58.125C58.9266 63.75 59.6648 63.3281 60.0656 62.632L67.9406 49.132C68.3484 48.4359 68.3484 47.5781 67.9477 46.875C67.5469 46.1719 66.8086 45.75 66 45.75H37.875C37.0734 45.75 36.3352 46.1719 35.9344 46.868L31.125 55.1086V36.75C31.125 36.1312 31.6312 35.625 32.25 35.625H40.5117C40.807 35.625 41.0953 35.7445 41.3063 35.9555L43.1695 37.8187C44.6461 39.2953 46.65 40.125 48.7383 40.125H57C57.6188 40.125 58.125 40.6312 58.125 41.25V43.5H61.5V41.25C61.5 38.768 59.482 36.75 57 36.75H48.7383C47.543 36.75 46.3969 36.2789 45.5531 35.4352L43.6898 33.5648C42.8461 32.7211 41.7 32.25 40.5047 32.25H32.25C29.768 32.25 27.75 34.268 27.75 36.75V59.25C27.75 61.732 29.768 63.75 32.25 63.75H33.9164H54.75Z" fill="#4B0082"/>
</g>
<defs>
<clipPath id="clip0_23_137">
<path d="M27.75 30H68.25V66H27.75V30Z" fill="white"/>
</clipPath>
</defs>
</svg>
